<?xml version="1.0" encoding="utf-8"?>
<svg version="1.1" id="Layer_1" x="0px" y="0px" width="512px" height="512px" viewBox="0 0 512 512" enable-background="new 0 0 512 512" xmlns="http://www.w3.org/2000/svg" xmlns:bx="https://boxy-svg.com">
  <path d="M 322.933 245.301 L 322.933 200.531 C 322.933 167.624 296.161 140.837 263.239 140.837 C 230.324 140.837 203.543 167.624 203.543 200.531 L 203.543 245.301 C 187.061 245.301 173.697 258.666 173.697 275.149 L 173.697 349.768 C 173.697 366.251 187.061 379.614 203.543 379.614 L 322.933 379.614 C 339.416 379.614 352.78 366.251 352.78 349.768 L 352.78 275.149 C 352.78 258.666 339.416 245.301 322.933 245.301 Z M 270.7 317.631 L 270.7 342.305 C 270.7 346.43 267.362 349.768 263.239 349.768 C 259.114 349.768 255.777 346.43 255.777 342.305 L 255.777 317.631 C 251.397 315.037 248.315 310.462 248.315 304.997 C 248.315 296.747 254.996 290.072 263.239 290.072 C 271.481 290.072 278.162 296.747 278.162 304.997 C 278.162 310.462 275.08 315.037 270.7 317.631 Z M 293.086 245.301 L 233.391 245.301 L 233.391 200.531 C 233.391 184.062 246.777 170.683 263.239 170.683 C 279.693 170.683 293.086 184.063 293.086 200.531 L 293.086 245.301 Z" style="stroke: rgb(255, 255, 255); fill: rgb(255, 255, 255);"/>
  <path d="M 561.074 251.18 m -227.639 0 a 227.639 227.064 0 1 0 455.278 0 a 227.639 227.064 0 1 0 -455.278 0 Z M 561.074 251.18 m -212.424 0 a 212.424 213.297 0 0 1 424.848 0 a 212.424 213.297 0 0 1 -424.848 0 Z" style="fill: rgb(255, 255, 255);" transform="matrix(-0.707107, 0.707107, -0.707107, -0.707107, 833.322669, 38.935905)" bx:shape="ring 561.074 251.18 212.424 213.297 227.639 227.064 1@0bad476a"/>
</svg>