<?xml version="1.0" encoding="utf-8"?>
<!-- Generator: Adobe Illustrator 23.1.0, SVG Export Plug-In . SVG Version: 6.00 Build 0)  -->
<svg version="1.1" xmlns="http://www.w3.org/2000/svg" xmlns:xlink="http://www.w3.org/1999/xlink" x="0px" y="0px"
	 viewBox="0 0 512 512" style="enable-background:new 0 0 512 512;" xml:space="preserve">
<style type="text/css">
	.st0{fill:#FFFFFF;}
	.st1{display:none;}
	.st2{display:inline;fill:none;stroke:#0F6936;}
</style>
<g id="Layer_1" xmlns:bx="https://boxy-svg.com">
	<g>
		<path class="st0" d="M322.9,245.3h-29.8h-59.7v-44.8l-0.6-22.5c0-8.4,3.4-16,8.9-21.5s13.2-8.9,21.5-8.9s15.9,3.4,21.4,8.9
			s8.9,13.2,8.9,21.5l-0.1,19.5h29V178c0-16.3-6.7-31.1-17.4-41.8c-10.7-10.8-25.4-17.4-41.8-17.4c-16.3,0-31.1,6.7-41.8,17.4
			C210.6,146.9,204,161.6,204,178l-0.5,67.3c-16.5,0-29.8,13.4-29.8,29.8v74.6c0,16.5,13.4,29.8,29.8,29.8h119.4
			c16.5,0,29.8-13.4,29.8-29.8v-74.6C352.8,258.7,339.4,245.3,322.9,245.3z M270.7,317.6v24.7c0,4.1-3.3,7.5-7.5,7.5
			c-4.1,0-7.5-3.3-7.5-7.5v-24.7c-4.4-2.6-7.5-7.2-7.5-12.6c0-8.2,6.7-14.9,14.9-14.9c8.2,0,14.9,6.7,14.9,14.9
			C278.2,310.5,275.1,315,270.7,317.6z"/>
	</g>
	<path bx:shape="ring 561.074 251.18 212.424 213.297 227.639 227.064 1@0bad476a" class="st0" d="M419.9,97.1
		C331.3,8.4,187.3,8.6,98.4,97.5S9.3,330.4,98,419c88.7,88.7,232.6,88.5,321.5-0.3S508.7,185.8,419.9,97.1
		C420,97.1,420,97.1,419.9,97.1L419.9,97.1z M409.2,107.9c83.3,83.3,83.5,218.1,0.5,301c-82.9,82.9-217.6,82.6-300.9-0.6
		c-83.3-83.3-83.6-218.1-0.6-301S325.9,24.6,409.2,107.9L409.2,107.9z"/>
</g>
<g id="Layer_2" class="st1">
	<path class="st2" d="M322.9,245.3v-44.8c0-32.9-26.8-59.7-59.7-59.7c-32.9,0-59.7,26.8-59.7,59.7v44.8c-16.5,0-29.8,13.4-29.8,29.8
		v74.6c0,16.5,13.4,29.8,29.8,29.8h119.4c16.5,0,29.8-13.4,29.8-29.8v-74.6C352.8,258.7,339.4,245.3,322.9,245.3z M270.7,317.6v24.7
		c0,4.1-3.3,7.5-7.5,7.5c-4.1,0-7.5-3.3-7.5-7.5v-24.7c-4.4-2.6-7.5-7.2-7.5-12.6c0-8.2,6.7-14.9,14.9-14.9
		c8.2,0,14.9,6.7,14.9,14.9C278.2,310.5,275.1,315,270.7,317.6z M293.1,245.3h-59.7v-44.8c0-16.5,13.4-29.8,29.8-29.8
		c16.5,0,29.8,13.4,29.8,29.8V245.3z"/>
</g>
</svg>
